<svg width="33" height="28" viewBox="0 0 33 28" fill="none" xmlns="http://www.w3.org/2000/svg">
<path fill-rule="evenodd" clip-rule="evenodd" d="M16.499 7.07568C12.08 7.07568 8.49902 10.6567 8.49902 15.0757C8.49902 19.4937 12.08 23.0757 16.499 23.0757C20.917 23.0757 24.499 19.4937 24.499 15.0757C24.499 10.6577 20.917 7.07568 16.499 7.07568ZM21.054 18.9807C18.898 21.4967 15.111 21.7877 12.595 19.6307C10.078 17.4747 9.78802 13.6867 11.945 11.1717C14.1 8.65468 17.888 8.36468 20.404 10.5217C22.919 12.6767 23.21 16.4657 21.054 18.9807Z" fill="#A4A1AA"/>
<path fill-rule="evenodd" clip-rule="evenodd" d="M16.499 11.0757C14.29 11.0757 12.5 12.8667 12.499 15.0747V15.0767C12.499 15.3517 12.723 15.5767 12.999 15.5767C13.275 15.5767 13.499 15.3517 13.499 15.0767V15.0747C13.5 13.4187 14.842 12.0757 16.499 12.0757C16.775 12.0757 16.999 11.8517 16.999 11.5757C16.999 11.2997 16.775 11.0757 16.499 11.0757Z" fill="#A4A1AA"/>
<path fill-rule="evenodd" clip-rule="evenodd" d="M29.991 6.11671L25.657 5.39371L24.284 1.95971C23.825 0.814707 22.731 0.074707 21.499 0.074707H11.499C10.267 0.074707 9.17302 0.814707 8.71302 1.96071L7.34102 5.39371L3.00802 6.11671C1.55402 6.35771 0.499023 7.60171 0.499023 9.07471V24.0747C0.499023 25.7287 1.84502 27.0747 3.49902 27.0747H29.499C31.153 27.0747 32.499 25.7287 32.499 24.0747V9.07471C32.499 7.60171 31.444 6.35771 29.991 6.11671ZM30.499 24.0747C30.499 24.6277 30.052 25.0747 29.499 25.0747H3.49902C2.94602 25.0747 2.49902 24.6277 2.49902 24.0747V9.07471C2.49902 8.58571 2.85302 8.16871 3.33502 8.08871L8.77902 7.18171L10.57 2.70371C10.723 2.32471 11.09 2.07471 11.499 2.07471H21.499C21.907 2.07471 22.274 2.32371 22.427 2.70371L24.218 7.18171L29.663 8.08871C30.145 8.16871 30.499 8.58571 30.499 9.07471V24.0747Z" fill="#A4A1AA"/>
</svg>
