<?xml version="1.0" standalone="no"?>
<!DOCTYPE svg PUBLIC "-//W3C//DTD SVG 20010904//EN"
 "http://www.w3.org/TR/2001/REC-SVG-20010904/DTD/svg10.dtd">
<svg version="1.0" xmlns="http://www.w3.org/2000/svg"
 width="512.000000pt" height="512.000000pt" viewBox="0 0 512.000000 512.000000"
 preserveAspectRatio="xMidYMid meet">

<g transform="translate(0.000000,512.000000) scale(0.100000,-0.100000)"
fill="#000000" stroke="none">
<path d="M2375 4793 c-921 -80 -1710 -724 -1963 -1603 -68 -235 -87 -373 -86
-635 0 -249 16 -372 78 -597 165 -600 591 -1117 1154 -1402 178 -90 427 -169
652 -208 170 -29 511 -32 675 -5 511 84 939 305 1286 664 270 280 459 617 554
987 57 226 70 325 69 571 0 238 -16 365 -69 569 -192 739 -777 1345 -1517
1570 -247 76 -580 111 -833 89z m480 -229 c806 -119 1459 -706 1666 -1498 46
-179 61 -302 62 -501 0 -333 -62 -603 -208 -900 -317 -647 -945 -1069 -1672
-1125 -354 -28 -706 42 -1038 205 -599 294 -1004 850 -1111 1525 -22 142 -22
438 0 580 82 519 339 969 736 1287 330 264 705 410 1150 447 79 7 312 -5 415
-20z"/>
<path d="M1440 3503 c-40 -27 -49 -45 -50 -92 0 -44 2 -47 134 -180 l135 -136
-135 -136 c-134 -136 -134 -137 -134 -184 0 -38 5 -52 29 -76 24 -24 38 -29
76 -29 47 0 48 0 184 134 l136 135 136 -135 c133 -132 136 -134 180 -134 67 1
109 43 109 111 0 28 -18 50 -137 171 l-137 138 126 128 c135 137 148 154 148
202 0 45 -56 100 -102 100 -45 0 -64 -14 -205 -154 l-123 -120 -138 137 c-124
123 -142 137 -173 137 -19 0 -46 -8 -59 -17z"/>
<path d="M2914 3486 c-36 -36 -44 -77 -23 -119 6 -12 68 -79 137 -149 l126
-128 -137 -138 c-119 -121 -137 -143 -137 -171 0 -68 42 -110 109 -111 44 0
47 2 180 134 l136 135 136 -135 c136 -134 137 -134 184 -134 38 0 52 5 76 29
24 24 29 38 29 76 0 47 0 48 -134 184 l-135 136 135 136 c132 133 134 136 134
180 -1 67 -43 109 -111 109 -28 0 -50 -18 -171 -137 l-138 -137 -128 126 c-70
69 -137 131 -149 137 -42 21 -83 13 -119 -23z"/>
<path d="M1544 1901 c-44 -27 -60 -77 -41 -124 31 -72 -50 -67 1058 -67 984 0
997 0 1022 20 38 30 52 80 33 123 -29 71 34 67 -1058 67 -952 0 -984 -1 -1014
-19z"/>
</g>
</svg>
