<svg width="20" height="20" viewBox="0 0 20 20" fill="none" xmlns="http://www.w3.org/2000/svg">
<g clip-path="url(#clip0_1820_6378)">
<path fill-rule="evenodd" clip-rule="evenodd" d="M4.40204 17.3347C4.69494 17.6276 5.16981 17.6276 5.4627 17.3347L12.3345 10.4629C12.4752 10.3222 12.5542 10.1314 12.5542 9.93252C12.5542 9.73361 12.4752 9.54284 12.3345 9.40219L5.4627 2.53038C5.16981 2.23749 4.69494 2.23749 4.40204 2.53038C4.10915 2.82328 4.10915 3.29815 4.40204 3.59105L10.7435 9.93252L4.40204 16.274C4.10915 16.5669 4.10915 17.0418 4.40204 17.3347Z" fill="#111322"/>
<path fill-rule="evenodd" clip-rule="evenodd" d="M8.40204 17.3347C8.69494 17.6276 9.16981 17.6276 9.4627 17.3347L16.3345 10.4629C16.4752 10.3222 16.5542 10.1314 16.5542 9.93252C16.5542 9.73361 16.4752 9.54284 16.3345 9.40219L9.4627 2.53038C9.16981 2.23749 8.69494 2.23749 8.40204 2.53038C8.10915 2.82328 8.10915 3.29815 8.40204 3.59105L14.7435 9.93252L8.40204 16.274C8.10915 16.5669 8.10915 17.0418 8.40204 17.3347Z" fill="#111322"/>
</g>
<defs>
<clipPath id="clip0_1820_6378">
<rect width="20" height="20" fill="white"/>
</clipPath>
</defs>
</svg>
