<svg width="20" height="20" viewBox="0 0 20 20" fill="none" xmlns="http://www.w3.org/2000/svg">
<circle cx="10" cy="10" r="10" fill="#EA3C12"/>
<path fill-rule="evenodd" clip-rule="evenodd" d="M14.5691 6.12743C14.775 6.33166 14.7762 6.66407 14.572 6.86989C12.8596 8.59566 11.4938 10.3234 10.556 11.6202C10.0874 12.2682 9.72655 12.8074 9.48353 13.1835C9.36205 13.3715 9.27007 13.5186 9.20887 13.618C9.17827 13.6678 9.15536 13.7056 9.14032 13.7306L9.12367 13.7584L9.1198 13.7649L9.11898 13.7663C9.02675 13.9229 8.85994 14.0209 8.67821 14.025C8.49673 14.029 8.32605 13.9391 8.22684 13.7871C8.2268 13.787 8.22643 13.7864 8.22638 13.7864L8.22584 13.7856L8.21932 13.7758C8.21298 13.7664 8.20264 13.7513 8.18831 13.7309C8.15963 13.6901 8.11498 13.6283 8.05425 13.5488C7.93273 13.3898 7.74717 13.1607 7.49681 12.8895C6.99558 12.3466 6.23794 11.6382 5.21812 10.9839C4.97408 10.8273 4.90318 10.5026 5.05976 10.2585C5.21633 10.0145 5.54109 9.94358 5.78513 10.1002C6.89469 10.8121 7.71947 11.5827 8.26832 12.1773C8.40298 12.3231 8.52122 12.4586 8.62319 12.5803C8.87438 12.1927 9.2381 11.6508 9.70512 11.005C10.6655 9.67683 12.0662 7.90454 13.8267 6.13031C14.0309 5.92449 14.3633 5.9232 14.5691 6.12743Z" fill="white"/>
</svg>
